# xmcd CD database file
#
# Track frame offsets:
#	150
#	95737
#	185605
#
# Disc length: 3675 seconds
#
# Revision: 0
# Processed by: cddbd v1.5.1PL0 Copyright (c) Steve Scherf et al.
# Submitted via: CDex 1.51
#
DISCID=230e5903
DTITLE=mystic dream - mystic dream  cd-2
DYEAR=2002
DGENRE=New Age
TTITLE0=appartion
TTITLE1=strange night
TTITLE2=frightfull dreams
EXTD=YEAR: 2002
EXTT0=
EXTT1=
EXTT2=
PLAYORDER=
